<mxfile host="app.diagrams.net" modified="2021-07-22T15:32:33.903Z" agent="5.0 (X11; Linux x86_64) AppleWebKit/537.36 (KHTML, like Gecko) Chrome/91.0.4472.106 Safari/537.36" etag="cCsXDIhop8yj9S9MRe-i" version="14.9.1" type="github">
  <diagram id="C5RBs43oDa-KdzZeNtuy" name="Page-1">
    <mxGraphModel dx="1131" dy="678" grid="1" gridSize="10" guides="1" tooltips="1" connect="1" arrows="1" fold="1" page="1" pageScale="1" pageWidth="827" pageHeight="1169" math="0" shadow="0">
      <root>
        <mxCell id="WIyWlLk6GJQsqaUBKTNV-0" />
        <mxCell id="WIyWlLk6GJQsqaUBKTNV-1" parent="WIyWlLk6GJQsqaUBKTNV-0" />
        <mxCell id="WIyWlLk6GJQsqaUBKTNV-3" value="Analyte" style="rounded=1;whiteSpace=wrap;html=1;fontSize=14;glass=0;strokeWidth=1;shadow=0;fontFamily=Times New Roman;" parent="WIyWlLk6GJQsqaUBKTNV-1" vertex="1">
          <mxGeometry x="40" y="120" width="120" height="40" as="geometry" />
        </mxCell>
        <mxCell id="dydRh0zWO_Bg_8P7NJzj-0" value="Biorecognition" style="rounded=1;whiteSpace=wrap;html=1;fontSize=14;glass=0;strokeWidth=1;shadow=0;fontFamily=Times New Roman;" vertex="1" parent="WIyWlLk6GJQsqaUBKTNV-1">
          <mxGeometry x="200" y="120" width="120" height="40" as="geometry" />
        </mxCell>
        <mxCell id="dydRh0zWO_Bg_8P7NJzj-1" value="Transducer" style="rounded=1;whiteSpace=wrap;html=1;fontSize=14;glass=0;strokeWidth=1;shadow=0;fontFamily=Times New Roman;" vertex="1" parent="WIyWlLk6GJQsqaUBKTNV-1">
          <mxGeometry x="360" y="120" width="120" height="40" as="geometry" />
        </mxCell>
        <mxCell id="dydRh0zWO_Bg_8P7NJzj-2" value="Signal processing" style="rounded=1;whiteSpace=wrap;html=1;fontSize=14;glass=0;strokeWidth=1;shadow=0;fontFamily=Times New Roman;" vertex="1" parent="WIyWlLk6GJQsqaUBKTNV-1">
          <mxGeometry x="520" y="120" width="120" height="40" as="geometry" />
        </mxCell>
        <mxCell id="dydRh0zWO_Bg_8P7NJzj-3" value="Data handling" style="rounded=1;whiteSpace=wrap;html=1;fontSize=14;glass=0;strokeWidth=1;shadow=0;fontFamily=Times New Roman;" vertex="1" parent="WIyWlLk6GJQsqaUBKTNV-1">
          <mxGeometry x="680" y="120" width="120" height="40" as="geometry" />
        </mxCell>
        <mxCell id="dydRh0zWO_Bg_8P7NJzj-27" style="edgeStyle=orthogonalEdgeStyle;rounded=0;orthogonalLoop=1;jettySize=auto;html=1;exitX=1;exitY=0.5;exitDx=0;exitDy=0;entryX=0.133;entryY=0.4;entryDx=0;entryDy=0;entryPerimeter=0;fontFamily=Times New Roman;fontSize=14;" edge="1" parent="WIyWlLk6GJQsqaUBKTNV-1" source="dydRh0zWO_Bg_8P7NJzj-5" target="dydRh0zWO_Bg_8P7NJzj-15">
          <mxGeometry relative="1" as="geometry" />
        </mxCell>
        <mxCell id="dydRh0zWO_Bg_8P7NJzj-5" value="Analyte" style="swimlane;fontFamily=Helvetica;fontSize=14;fillColor=#fff2cc;strokeColor=#d6b656;" vertex="1" parent="WIyWlLk6GJQsqaUBKTNV-1">
          <mxGeometry x="34" y="360" width="100" height="120" as="geometry">
            <mxRectangle x="290" y="260" width="140" height="23" as="alternateBounds" />
          </mxGeometry>
        </mxCell>
        <mxCell id="dydRh0zWO_Bg_8P7NJzj-6" value="&lt;ul&gt;&lt;li&gt;&lt;span style=&quot;background-color: rgb(204 , 255 , 204)&quot;&gt;&lt;font face=&quot;Helvetica&quot;&gt;Antigen&lt;/font&gt;&lt;/span&gt;&lt;/li&gt;&lt;li&gt;&lt;span style=&quot;background-color: rgb(204 , 255 , 204)&quot;&gt;&lt;font face=&quot;Helvetica&quot;&gt;Protein&lt;/font&gt;&lt;/span&gt;&lt;/li&gt;&lt;li&gt;&lt;span style=&quot;background-color: rgb(204 , 255 , 204)&quot;&gt;&lt;font face=&quot;Helvetica&quot;&gt;Virus&lt;/font&gt;&lt;/span&gt;&lt;/li&gt;&lt;li&gt;&lt;span style=&quot;background-color: rgb(204 , 255 , 204)&quot;&gt;&lt;font face=&quot;Helvetica&quot;&gt;Enzyme&lt;/font&gt;&lt;/span&gt;&lt;/li&gt;&lt;/ul&gt;" style="text;html=1;align=left;verticalAlign=middle;resizable=0;points=[];autosize=0;strokeColor=none;fontSize=14;fontFamily=Times New Roman;" vertex="1" parent="dydRh0zWO_Bg_8P7NJzj-5">
          <mxGeometry x="-5" y="20" width="100" height="100" as="geometry" />
        </mxCell>
        <mxCell id="dydRh0zWO_Bg_8P7NJzj-31" value="" style="edgeStyle=orthogonalEdgeStyle;rounded=0;orthogonalLoop=1;jettySize=auto;html=1;fontFamily=Times New Roman;fontSize=14;entryX=0.133;entryY=0.5;entryDx=0;entryDy=0;entryPerimeter=0;" edge="1" parent="WIyWlLk6GJQsqaUBKTNV-1" source="dydRh0zWO_Bg_8P7NJzj-14" target="dydRh0zWO_Bg_8P7NJzj-20">
          <mxGeometry relative="1" as="geometry" />
        </mxCell>
        <mxCell id="dydRh0zWO_Bg_8P7NJzj-14" value="Â Biorecognition" style="swimlane;fontFamily=Helvetica;fontSize=14;fillColor=#fff2cc;strokeColor=#d6b656;" vertex="1" parent="WIyWlLk6GJQsqaUBKTNV-1">
          <mxGeometry x="210" y="360" width="135" height="120" as="geometry">
            <mxRectangle x="290" y="260" width="140" height="23" as="alternateBounds" />
          </mxGeometry>
        </mxCell>
        <mxCell id="dydRh0zWO_Bg_8P7NJzj-15" value="&lt;ul&gt;&lt;li style=&quot;text-align: justify&quot;&gt;&lt;span style=&quot;background-color: rgb(204 , 255 , 204)&quot;&gt;&lt;font face=&quot;Helvetica&quot;&gt;Antibody&lt;/font&gt;&lt;/span&gt;&lt;/li&gt;&lt;li style=&quot;text-align: justify&quot;&gt;&lt;span style=&quot;background-color: rgb(204 , 255 , 204)&quot;&gt;&lt;font face=&quot;Helvetica&quot;&gt;Protein receptor&lt;/font&gt;&lt;/span&gt;&lt;/li&gt;&lt;li style=&quot;text-align: justify&quot;&gt;&lt;span style=&quot;background-color: rgb(204 , 255 , 204)&quot;&gt;&lt;font face=&quot;Helvetica&quot;&gt;Microorganism&lt;/font&gt;&lt;/span&gt;&lt;/li&gt;&lt;li style=&quot;text-align: justify&quot;&gt;&lt;span style=&quot;background-color: rgb(204 , 255 , 204)&quot;&gt;&lt;font face=&quot;Helvetica&quot;&gt;Enzyme&lt;/font&gt;&lt;/span&gt;&lt;/li&gt;&lt;/ul&gt;" style="text;html=1;align=center;verticalAlign=middle;resizable=0;points=[];autosize=1;strokeColor=none;fontSize=14;fontFamily=Times New Roman;" vertex="1" parent="dydRh0zWO_Bg_8P7NJzj-14">
          <mxGeometry x="-25" y="20" width="160" height="100" as="geometry" />
        </mxCell>
        <mxCell id="dydRh0zWO_Bg_8P7NJzj-19" value="Transducer" style="swimlane;fontFamily=Helvetica;fontSize=14;fillColor=#fff2cc;strokeColor=#d6b656;" vertex="1" parent="WIyWlLk6GJQsqaUBKTNV-1">
          <mxGeometry x="420" y="360" width="130" height="120" as="geometry">
            <mxRectangle x="290" y="260" width="140" height="23" as="alternateBounds" />
          </mxGeometry>
        </mxCell>
        <mxCell id="dydRh0zWO_Bg_8P7NJzj-20" value="&lt;ul&gt;&lt;li style=&quot;text-align: justify&quot;&gt;&lt;span style=&quot;background-color: rgb(204 , 255 , 204)&quot;&gt;&lt;font face=&quot;Helvetica&quot;&gt;Optical&lt;/font&gt;&lt;/span&gt;&lt;/li&gt;&lt;li style=&quot;text-align: justify&quot;&gt;&lt;span style=&quot;background-color: rgb(204 , 255 , 204)&quot;&gt;&lt;font face=&quot;Helvetica&quot;&gt;Electrochemical&lt;/font&gt;&lt;/span&gt;&lt;/li&gt;&lt;li style=&quot;text-align: justify&quot;&gt;&lt;span style=&quot;background-color: rgb(204 , 255 , 204)&quot;&gt;&lt;font face=&quot;Helvetica&quot;&gt;Physical&lt;/font&gt;&lt;/span&gt;&lt;/li&gt;&lt;/ul&gt;" style="text;html=1;align=center;verticalAlign=middle;resizable=0;points=[];autosize=1;strokeColor=none;fontSize=14;fontFamily=Times New Roman;" vertex="1" parent="dydRh0zWO_Bg_8P7NJzj-19">
          <mxGeometry x="-20" y="20" width="150" height="80" as="geometry" />
        </mxCell>
        <mxCell id="dydRh0zWO_Bg_8P7NJzj-21" value="Data handling" style="swimlane;fontFamily=Helvetica;fontSize=14;fillColor=#fff2cc;strokeColor=#d6b656;" vertex="1" parent="WIyWlLk6GJQsqaUBKTNV-1">
          <mxGeometry x="621" y="360" width="135" height="120" as="geometry">
            <mxRectangle x="290" y="260" width="140" height="23" as="alternateBounds" />
          </mxGeometry>
        </mxCell>
        <mxCell id="dydRh0zWO_Bg_8P7NJzj-22" value="&lt;ul&gt;&lt;li style=&quot;text-align: justify&quot;&gt;&lt;span style=&quot;background-color: rgb(204 , 255 , 204)&quot;&gt;&lt;font face=&quot;Helvetica&quot;&gt;Data processing&lt;/font&gt;&lt;/span&gt;&lt;/li&gt;&lt;li style=&quot;text-align: justify&quot;&gt;&lt;span style=&quot;background-color: rgb(204 , 255 , 204)&quot;&gt;&lt;font face=&quot;Helvetica&quot;&gt;Data analysis&lt;/font&gt;&lt;/span&gt;&lt;/li&gt;&lt;li style=&quot;text-align: justify&quot;&gt;&lt;span style=&quot;background-color: rgb(204 , 255 , 204)&quot;&gt;&lt;font face=&quot;Helvetica&quot;&gt;Visualization&lt;/font&gt;&lt;/span&gt;&lt;/li&gt;&lt;li style=&quot;text-align: justify&quot;&gt;&lt;span style=&quot;background-color: rgb(204 , 255 , 204)&quot;&gt;&lt;font face=&quot;Helvetica&quot;&gt;Storage&lt;/font&gt;&lt;/span&gt;&lt;/li&gt;&lt;/ul&gt;" style="text;html=1;align=center;verticalAlign=middle;resizable=0;points=[];autosize=1;strokeColor=none;fontSize=14;fontFamily=Times New Roman;" vertex="1" parent="dydRh0zWO_Bg_8P7NJzj-21">
          <mxGeometry x="-25" y="20" width="160" height="100" as="geometry" />
        </mxCell>
        <mxCell id="dydRh0zWO_Bg_8P7NJzj-23" value="Biological&lt;br&gt;behavior" style="text;html=1;strokeColor=none;fillColor=none;align=center;verticalAlign=middle;whiteSpace=wrap;rounded=0;fontFamily=Helvetica;fontSize=14;" vertex="1" parent="WIyWlLk6GJQsqaUBKTNV-1">
          <mxGeometry x="151" y="407" width="40" height="20" as="geometry" />
        </mxCell>
        <mxCell id="dydRh0zWO_Bg_8P7NJzj-24" value="Biological&lt;br&gt;response" style="text;html=1;strokeColor=none;fillColor=none;align=center;verticalAlign=middle;whiteSpace=wrap;rounded=0;fontFamily=Helvetica;fontSize=14;" vertex="1" parent="WIyWlLk6GJQsqaUBKTNV-1">
          <mxGeometry x="360" y="407" width="40" height="20" as="geometry" />
        </mxCell>
        <mxCell id="dydRh0zWO_Bg_8P7NJzj-25" value="Electrical&lt;br&gt;signal" style="text;html=1;strokeColor=none;fillColor=none;align=center;verticalAlign=middle;whiteSpace=wrap;rounded=0;fontFamily=Helvetica;fontSize=14;" vertex="1" parent="WIyWlLk6GJQsqaUBKTNV-1">
          <mxGeometry x="565" y="408" width="40" height="20" as="geometry" />
        </mxCell>
        <mxCell id="dydRh0zWO_Bg_8P7NJzj-32" value="" style="edgeStyle=orthogonalEdgeStyle;rounded=0;orthogonalLoop=1;jettySize=auto;html=1;fontFamily=Times New Roman;fontSize=14;" edge="1" parent="WIyWlLk6GJQsqaUBKTNV-1" source="dydRh0zWO_Bg_8P7NJzj-20">
          <mxGeometry relative="1" as="geometry">
            <mxPoint x="620" y="420" as="targetPoint" />
          </mxGeometry>
        </mxCell>
      </root>
    </mxGraphModel>
  </diagram>
</mxfile>
